<?xml version="1.0" encoding="UTF-8"?>
<svg viewBox="0 0 400 400" xmlns="http://www.w3.org/2000/svg">
  <!-- Background -->
  <circle cx="200" cy="200" r="180" fill="#e6f7ff" />
  
  <!-- Character body -->
  <ellipse cx="200" cy="220" rx="100" ry="120" fill="#a4e1fc" stroke="#4dabf5" stroke-width="3" />
  
  <!-- Face -->
  <circle cx="200" cy="160" r="80" fill="#ffe0b2" stroke="#ffcc80" stroke-width="2" />
  
  <!-- Eyes -->
  <g>
    <!-- Left eye -->
    <circle cx="170" cy="140" r="15" fill="white" stroke="#333" stroke-width="1" />
    <circle cx="173" cy="137" r="8" fill="#333" />
    <circle cx="175" cy="134" r="3" fill="white" />
    
    <!-- Right eye -->
    <circle cx="230" cy="140" r="15" fill="white" stroke="#333" stroke-width="1" />
    <circle cx="233" cy="137" r="8" fill="#333" />
    <circle cx="235" cy="134" r="3" fill="white" />
    
    <!-- Eyebrows - happy -->
    <path d="M155,120 Q170,110 185,120" fill="none" stroke="#333" stroke-width="3" stroke-linecap="round" />
    <path d="M215,120 Q230,110 245,120" fill="none" stroke="#333" stroke-width="3" stroke-linecap="round" />
  </g>
  
  <!-- Big smile -->
  <path d="M150,170 Q200,220 250,170" fill="none" stroke="#333" stroke-width="4" stroke-linecap="round" />
  
  <!-- Rosy cheeks -->
  <circle cx="150" cy="170" r="15" fill="#ffb3ba" opacity="0.6" />
  <circle cx="250" cy="170" r="15" fill="#ffb3ba" opacity="0.6" />
  
  <!-- Arms up in celebration -->
  <path d="M120,200 Q100,150 80,130" fill="none" stroke="#4dabf5" stroke-width="8" stroke-linecap="round" />
  <path d="M280,200 Q300,150 320,130" fill="none" stroke="#4dabf5" stroke-width="8" stroke-linecap="round" />
  
  <!-- Celebration stars -->
  <g fill="#ffeb3b">
    <polygon points="80,100 85,110 95,112 87,120 90,130 80,125 70,130 73,120 65,112 75,110" />
    <polygon points="320,100 325,110 335,112 327,120 330,130 320,125 310,130 313,120 305,112 315,110" />
    <polygon points="200,60 205,70 215,72 207,80 210,90 200,85 190,90 193,80 185,72 195,70" />
  </g>
  
  <!-- Correct symbol -->
  <g transform="translate(310, 310) scale(0.8)">
    <circle cx="0" cy="0" r="35" fill="#4caf50" />
    <path d="M-15,0 L-5,10 L15,-10" fill="none" stroke="white" stroke-width="8" stroke-linecap="round" stroke-linejoin="round" />
  </g>
</svg>