<?xml version="1.0" encoding="UTF-8"?>
<svg viewBox="0 0 400 400" xmlns="http://www.w3.org/2000/svg">
  <!-- Background with radiating lines -->
  <circle cx="200" cy="200" r="180" fill="#e8f5e9" />
  <g stroke="#81c784" stroke-width="2" opacity="0.5">
    <line x1="200" y1="20" x2="200" y2="60" />
    <line x1="200" y1="340" x2="200" y2="380" />
    <line x1="20" y1="200" x2="60" y2="200" />
    <line x1="340" y1="200" x2="380" y2="200" />
    <line x1="80" y1="80" x2="110" y2="110" />
    <line x1="290" y1="290" x2="320" y2="320" />
    <line x1="80" y1="320" x2="110" y2="290" />
    <line x1="290" y1="110" x2="320" y2="80" />
  </g>
  
  <!-- Character body -->
  <ellipse cx="200" cy="220" rx="100" ry="120" fill="#66bb6a" stroke="#4caf50" stroke-width="3" />
  
  <!-- Face -->
  <circle cx="200" cy="160" r="80" fill="#ffe0b2" stroke="#ffcc80" stroke-width="2" />
  
  <!-- Eyes -->
  <g>
    <!-- Left eye - star shaped -->
    <circle cx="170" cy="140" r="18" fill="white" stroke="#333" stroke-width="1" />
    <polygon points="170,132 173,138 180,138 175,143 177,150 170,146 163,150 165,143 160,138 167,138" fill="gold" stroke="#333" stroke-width="1" />
    
    <!-- Right eye - star shaped -->
    <circle cx="230" cy="140" r="18" fill="white" stroke="#333" stroke-width="1" />
    <polygon points="230,132 233,138 240,138 235,143 237,150 230,146 223,150 225,143 220,138 227,138" fill="gold" stroke="#333" stroke-width="1" />
    
    <!-- Eyebrows - very happy -->
    <path d="M155,115 Q170,105 185,115" fill="none" stroke="#333" stroke-width="3" stroke-linecap="round" />
    <path d="M215,115 Q230,105 245,115" fill="none" stroke="#333" stroke-width="3" stroke-linecap="round" />
  </g>
  
  <!-- Wide smile -->
  <path d="M140,170 Q200,230 260,170" fill="none" stroke="#333" stroke-width="4" stroke-linecap="round" />
  
  <!-- Rosy cheeks -->
  <circle cx="150" cy="170" r="15" fill="#ffb3ba" opacity="0.7" />
  <circle cx="250" cy="170" r="15" fill="#ffb3ba" opacity="0.7" />
  
  <!-- Arms up with trophy -->
  <path d="M120,200 Q100,150 80,130" fill="none" stroke="#4caf50" stroke-width="8" stroke-linecap="round" />
  <path d="M280,200 Q300,150 320,130" fill="none" stroke="#4caf50" stroke-width="8" stroke-linecap="round" />
  
  <!-- Trophy -->
  <g transform="translate(200, 80)">
    <rect x="-25" y="10" width="50" height="10" fill="#ffd700" stroke="#ff8f00" stroke-width="2" />
    <path d="M-15,10 L-15,-20 Q0,-30 15,-20 L15,10" fill="#ffd700" stroke="#ff8f00" stroke-width="2" />
    <rect x="-10" y="20" width="20" height="25" fill="#ffd700" stroke="#ff8f00" stroke-width="2" />
  </g>
  
  <!-- Celebration confetti -->
  <g fill-opacity="0.7">
    <circle cx="90" cy="80" r="8" fill="#f44336" />
    <circle cx="310" cy="90" r="8" fill="#2196f3" />
    <circle cx="100" cy="300" r="8" fill="#9c27b0" />
    <circle cx="300" cy="310" r="8" fill="#ff9800" />
    <circle cx="150" cy="50" r="8" fill="#4caf50" />
    <circle cx="250" cy="50" r="8" fill="#e91e63" />
    <rect x="120" y="250" width="10" height="10" transform="rotate(45, 125, 255)" fill="#3f51b5" />
    <rect x="270" y="250" width="10" height="10" transform="rotate(45, 275, 255)" fill="#009688" />
    <polygon points="50,150 55,160 65,160 57,167 60,177 50,172 40,177 43,167 35,160 45,160" fill="#ffeb3b" />
    <polygon points="350,150 355,160 365,160 357,167 360,177 350,172 340,177 343,167 335,160 345,160" fill="#cddc39" />
  </g>
  
  <!-- Winner badge -->
  <g transform="translate(310, 310) scale(0.8)">
    <circle cx="0" cy="0" r="35" fill="#673ab7" />
    <polygon points="0,-20 5,-5 20,0 5,5 0,20 -5,5 -20,0 -5,-5" fill="#ffc107" />
    <circle cx="0" cy="0" r="10" fill="#ffc107" />
  </g>
</svg>